<svg
        className="landing__logo-orange"
        width="60"
        height="60"
        viewBox="0 0 60 60"
        fill="none"
        xmlns="http://www.w3.org/2000/svg"
>
    <g clipPath="url(#clip0_1_1648)">
        <path d="M0 0H60V60H0V0Z" fill="#ffd600" />
        <path
                d="M23.5377 54.1879C22.7236 54.7324 21.7654 55.0213 20.786 55.0177C19.2281 55.0177 18.3073 53.9805 18.3073 52.5919C18.3073 50.7229 20.0261 49.7323 23.5673 49.3322V48.8686C23.5673 48.2611 23.1059 47.9098 22.255 47.9098C21.8645 47.8988 21.4768 47.9798 21.1235 48.1464C20.7701 48.313 20.4609 48.5604 20.2208 48.8686L18.7391 48.022C19.5181 46.934 20.7049 46.3907 22.2994 46.3921C24.4754 46.3921 25.6862 47.334 25.6862 48.8686V54.9224H23.7388L23.5377 54.1879ZM20.4579 52.431C20.4579 52.992 20.8114 53.5169 21.4485 53.5169C22.1407 53.5169 22.8117 53.229 23.4848 52.6364V50.6594C21.4316 50.9197 20.4579 51.4468 20.4579 52.4353V52.431ZM27.4197 46.7943L29.238 46.5424L29.4369 47.533C30.4635 46.7816 31.2785 46.3815 32.3051 46.3815C34.0238 46.3815 34.9086 47.2938 34.9086 49.0994V54.9139H32.7136V49.4825C32.7136 48.4601 32.4469 48.0008 31.6553 48.0008C30.9991 48.0008 30.345 48.3035 29.5999 48.9279V54.9182H27.4197V46.7943ZM49.4652 55.0727C47.0035 55.0727 45.5345 53.4915 45.5345 50.744C45.5345 47.9966 47.0162 46.3815 49.4292 46.3815C51.8422 46.3815 53.271 47.9161 53.271 50.6319C53.271 50.7758 53.2541 50.9197 53.2541 51.0552H47.6935C47.7104 52.6364 48.3666 53.4344 49.6599 53.4344C50.4918 53.4344 51.04 53.0999 51.5544 52.376L53.1652 53.2693C52.4561 54.4504 51.1818 55.0727 49.4652 55.0727ZM51.112 49.6412C51.112 48.5236 50.477 47.8674 49.4292 47.8674C48.4386 47.8674 47.8184 48.5025 47.7358 49.6412H51.112ZM7.38516 55.1637C5.21131 55.1637 3.25336 53.7794 3.25336 50.7567C3.25336 47.7341 5.21131 46.3561 7.38516 46.3561C9.55901 46.3561 11.517 47.7426 11.517 50.7631C11.517 53.7836 9.55689 55.1637 7.38516 55.1637ZM7.38516 48.2082C5.74471 48.2082 5.43991 49.6899 5.43991 50.7483C5.43991 51.8066 5.74471 53.2989 7.38516 53.2989C9.0256 53.2989 9.33041 51.8172 9.33041 50.7483C9.33041 49.6793 9.0256 48.2082 7.38516 48.2082ZM13.024 46.5678H15.1132V47.5499C15.3975 47.2105 15.7483 46.933 16.144 46.7346C16.5398 46.5361 16.9721 46.421 17.4141 46.3963C17.5089 46.3939 17.6037 46.3988 17.6977 46.4112V48.4728H17.5919C16.6351 48.4728 15.5895 48.621 15.2635 49.364V54.9182H13.024V46.5678ZM40.2893 53.1296C41.9572 53.1169 42.0969 51.4214 42.0969 50.3122C42.0969 49.0083 41.4619 47.9458 40.2745 47.9458C39.4849 47.9458 38.6044 48.5215 38.6044 50.4032C38.6044 51.4362 38.6763 53.1401 40.2893 53.1296ZM44.2094 46.5424V54.4483C44.2094 55.8453 44.1036 58.1419 40.1221 58.1673C38.4816 58.1673 36.9597 57.5217 36.6549 56.0866L38.8245 55.7373C38.9155 56.148 39.1653 56.5586 40.3951 56.5586C41.536 56.5586 42.0885 56.0125 42.0885 54.7065V53.7349L42.0588 53.7053C41.7096 54.3276 41.1783 54.9203 39.9019 54.9203C37.9567 54.9203 36.4221 53.5698 36.4221 50.7462C36.4221 47.9542 38.0032 46.3921 39.7791 46.39C41.445 46.39 42.0631 47.1456 42.2049 47.5457H42.1795L42.3594 46.5466L44.2094 46.5424ZM54.1346 43.7716H53.271V46.1635H52.8138V43.7716H51.9502V43.4033H54.1346V43.7716ZM57.733 46.1635H57.2779V43.8584H57.2631L56.3593 46.1635H56.0714L55.1676 43.8584H55.1549V46.1635H54.6998V43.4118H55.4025L56.2259 45.5073L57.0366 43.4118H57.733V46.1635Z"
                fill="white"
        />
    </g>
    <defs>
        <clipPath id="clip0_1_1648">
            <rect width="60" height="60" fill="white" />
        </clipPath>
    </defs>
</svg>
