 <svg
            width="120"
            height="120"
            viewBox="0 0 120 120"
            fill="none"
            xmlns="http://www.w3.org/2000/svg"
          >
            <path
              d="M105.064 62.5C107.064 62.5 107.544 62.9802 108.564 64C109.564 65 115.064 71.1667 117.564 74C118.337 74.8764 118.564 78.5 115.064 78.5H108.064C107.897 87.0643 108.064 106.3 108.064 111.5C108.064 115.5 103.564 119 101.064 119H75.0636H21.0636C16.5636 119 12.0636 116 12.0636 110.5V78.5H5.06357C1.06357 78.5 1.56361 75 3.06357 73.5C4.73024 71.5 8.46358 67 10.0636 65C11.6636 63 13.5636 62.5 16.0636 62.5H75.0636H105.064Z"
              fill="#F8981D"
            />
            <path
              d="M16.0637 62.5H75.0637V119H21.0637C16.5637 119 12.0637 116 12.0637 110.5V78.5H5.0637C1.0637 78.5 1.56373 75 3.0637 73.5C4.73036 71.5 8.4637 67 10.0637 65C11.6637 63 13.5637 62.5 16.0637 62.5Z"
              fill="#FDB64E"
            />
            <path
              d="M75.0637 62.5H16.0637C13.5637 62.5 11.6637 63 10.0637 65C8.4637 67 4.73036 71.5 3.0637 73.5C1.56373 75 1.0637 78.5 5.0637 78.5H12.0637H55.0637C58.5637 78.5 61.2637 78.7 64.0637 75.5C66.8637 72.3 72.5637 65.5 75.0637 62.5Z"
              fill="#FECD81"
            />
            <path
              fillRule="evenodd"
              clipRule="evenodd"
              d="M12.3711 62.0651C13.5187 61.6294 14.755 61.5 16.0636 61.5H105.064C106.135 61.5 106.932 61.6265 107.627 61.9723C108.272 62.2935 108.751 62.7724 109.217 63.2392L109.271 63.2929C110.299 64.3213 115.828 70.5211 118.313 73.3384C118.681 73.7553 118.888 74.3552 118.978 74.9123C119.074 75.4981 119.066 76.1818 118.879 76.8481C118.691 77.5216 118.311 78.203 117.65 78.7124C116.985 79.2246 116.116 79.5 115.064 79.5H109.046C108.946 86.048 109.002 97.4318 109.039 105.049C109.052 107.853 109.064 110.146 109.064 111.5C109.064 113.871 107.743 115.989 106.192 117.473C105.407 118.224 104.53 118.845 103.663 119.283C102.809 119.714 101.9 120 101.064 120H21.0636C16.1677 120 11.0636 116.697 11.0636 110.5V79.5H5.06361C3.92585 79.5 2.98286 79.2516 2.27144 78.7434C1.54358 78.2235 1.15055 77.4968 1.01634 76.7363C0.764668 75.3101 1.40649 73.7652 2.32239 72.8274C4.00359 70.8098 7.69875 66.3553 9.28275 64.3753C10.1866 63.2455 11.2052 62.5079 12.3711 62.0651ZM13.0636 79.5V110.5C13.0636 115.303 16.9595 118 21.0636 118H74.0636V65.257C71.2313 68.6408 67.0815 73.5696 64.8162 76.1585C63.2868 77.9063 61.7334 78.7718 60.0589 79.1725C58.636 79.5131 57.1408 79.5073 55.644 79.5015C55.4505 79.5007 55.257 79.5 55.0636 79.5H13.0636ZM76.0636 65.4121V118H101.064C101.477 118 102.068 117.848 102.761 117.498C103.441 117.155 104.158 116.651 104.81 116.027C106.134 114.761 107.064 113.129 107.064 111.5C107.064 110.163 107.052 107.888 107.039 105.1C107.002 97.4971 106.946 86.0827 107.046 79.5H94.0636C92.4386 79.5 91.2313 79.4811 90.3088 79.4154C89.3909 79.3499 88.6841 79.2343 88.0903 79.0062C87.4658 78.7664 87.0316 78.4276 86.6262 78.0313C86.4447 77.854 86.2604 77.6563 86.0741 77.4567L86.0395 77.4195C85.8365 77.202 85.6175 76.9681 85.3565 76.7071C82.934 74.2846 78.9314 69.1156 76.1541 65.529C76.1238 65.4898 76.0936 65.4509 76.0636 65.4121ZM77.1129 63.5C77.3347 63.7859 77.5662 64.0849 77.8058 64.3942C80.5859 67.9833 84.4503 72.9725 86.7707 75.2929C87.0582 75.5803 87.2974 75.836 87.5019 76.0552L87.5221 76.0768C87.7216 76.2907 87.8767 76.457 88.0241 76.601C88.3087 76.8792 88.5186 77.0283 88.8074 77.1392C89.1268 77.2619 89.6024 77.3599 90.451 77.4204C91.2951 77.4806 92.4386 77.5 94.0636 77.5H115.064C115.761 77.5 116.177 77.3224 116.429 77.1279C116.686 76.9305 116.857 76.6512 116.953 76.3092C117.051 75.9601 117.06 75.5735 117.004 75.2334C116.977 75.0657 116.937 74.9243 116.894 74.8172C116.848 74.7037 116.813 74.6604 116.814 74.6616C114.3 71.8123 108.828 65.6787 107.856 64.7071C107.32 64.1708 107.06 63.9243 106.736 63.7629C106.436 63.6136 105.992 63.5 105.064 63.5H77.1129ZM72.9259 63.5C70.1001 66.8789 65.6694 72.1462 63.311 74.8415C62.0403 76.2937 60.8438 76.9282 59.5934 77.2275C58.4194 77.5084 57.1799 77.5051 55.6439 77.501C55.4551 77.5005 55.2618 77.5 55.0636 77.5H5.06361C4.20137 77.5 3.70687 77.3109 3.43392 77.116C3.17741 76.9327 3.0392 76.6907 2.98591 76.3887C2.86571 75.7075 3.20477 74.7731 3.77073 74.2071C3.7921 74.1857 3.81249 74.1634 3.83183 74.1402C5.49686 72.1422 9.23702 67.634 10.8445 65.6247C11.5406 64.7545 12.2721 64.2421 13.0811 63.9349C13.9086 63.6206 14.8723 63.5 16.0636 63.5H72.9259ZM57.0636 102.5C57.0636 101.948 57.5114 101.5 58.0636 101.5H67.0637C67.6159 101.5 68.0637 101.948 68.0637 102.5C68.0637 103.052 67.6159 103.5 67.0637 103.5H58.0636C57.5114 103.5 57.0636 103.052 57.0636 102.5ZM57.0636 109.5C57.0636 108.948 57.5114 108.5 58.0636 108.5H67.0637C67.6159 108.5 68.0637 108.948 68.0637 109.5C68.0637 110.052 67.6159 110.5 67.0637 110.5H58.0636C57.5114 110.5 57.0636 110.052 57.0636 109.5Z"
              fill="black"
            />
            <path
              d="M21 102C21 101.448 21.4477 101 22 101H34C34.5523 101 35 101.448 35 102V109C35 109.552 34.5523 110 34 110H22C21.4477 110 21 109.552 21 109V102Z"
              fill="white"
            />
            <path
              fillRule="evenodd"
              clipRule="evenodd"
              d="M23 103V108H33V103H23ZM22 101C21.4477 101 21 101.448 21 102V109C21 109.552 21.4477 110 22 110H34C34.5523 110 35 109.552 35 109V102C35 101.448 34.5523 101 34 101H22Z"
              fill="black"
            />
            <path
              d="M23.0637 62.5002V21.5002C23.0637 21.2455 23.0897 20.9001 23.1548 20.5002C23.3453 19.3297 23.8712 17.6927 25.0637 16.5002C26.6637 14.9002 35.0637 7.16683 39.0637 3.50016C39.6809 2.93439 40.5001 2.57117 41.5637 2.24661C42.2664 2.03203 43.5009 2 44.0001 2L91.0637 2.00016C93.0637 2.16683 97.0637 3.50016 97.0637 7.50016V62.5002H23.0637Z"
              fill="white"
            />
            <path
              fillRule="evenodd"
              clipRule="evenodd"
              d="M42.5637 3.07466V15.5002C42.5637 17.868 41.4504 19.4195 40.0489 20.3369C38.7012 21.219 37.1224 21.5002 36.0637 21.5002H24.0637V61.5002H96.0637V7.50016C96.0637 5.89729 95.2871 4.84729 94.2495 4.13831C93.1911 3.41504 91.8919 3.07949 91.0203 3.00016L44.0001 3C43.7677 3 43.3607 3.00758 42.9339 3.03997C42.8053 3.04973 42.6811 3.06133 42.5637 3.07466ZM24.4258 19.5002H36.0637C36.8384 19.5002 38.0095 19.2814 38.9536 18.6635C39.8437 18.0808 40.5637 17.1323 40.5637 15.5002V3.69198C40.2281 3.85719 39.9603 4.0349 39.7394 4.23732C35.7271 7.91534 27.3508 15.6272 25.7708 17.2073C25.1168 17.8613 24.6897 18.6995 24.4258 19.5002ZM41.2719 1.29015C41.7339 1.14908 42.3098 1.08159 42.7825 1.04571C43.2735 1.00844 43.7333 1 44.0001 1L91.0637 1.00016C91.0914 1.00016 91.1191 1.00131 91.1468 1.00362C92.2752 1.09765 93.9525 1.51299 95.3779 2.48702C96.8404 3.48636 98.0637 5.10303 98.0637 7.50016V62.5002C98.0637 63.0524 97.616 63.5002 97.0637 63.5002H23.0637C22.5114 63.5002 22.0637 63.0524 22.0637 62.5002V21.5002C22.0637 21.1839 22.0954 20.7842 22.1677 20.3395C22.3757 19.062 22.9574 17.1923 24.3566 15.7931C25.9766 14.1731 34.4004 6.41832 38.388 2.76301L39.0637 3.50016L38.388 2.76301C39.1718 2.04455 40.1638 1.62827 41.2717 1.29021"
              fill="black"
            />
            <path
              d="M35.0637 35.5C35.0637 34.9477 35.5114 34.5 36.0637 34.5H44.0637C44.616 34.5 45.0637 34.9477 45.0637 35.5V53.5C45.0637 54.0523 44.616 54.5 44.0637 54.5H36.0637C35.5114 54.5 35.0637 54.0523 35.0637 53.5V35.5Z"
              fill="#FFA24D"
            />
            <path
              fillRule="evenodd"
              clipRule="evenodd"
              d="M37.0637 36.5V52.5H43.0637V36.5H37.0637ZM36.0637 34.5C35.5114 34.5 35.0637 34.9477 35.0637 35.5V53.5C35.0637 54.0523 35.5114 54.5 36.0637 54.5H44.0637C44.616 54.5 45.0637 54.0523 45.0637 53.5V35.5C45.0637 34.9477 44.616 34.5 44.0637 34.5H36.0637Z"
              fill="black"
            />
            <path
              d="M55.0637 21.5C55.0637 20.9477 55.5114 20.5 56.0637 20.5H64.0637C64.616 20.5 65.0637 20.9477 65.0637 21.5V53.5C65.0637 54.0523 64.616 54.5 64.0637 54.5H56.0637C55.5114 54.5 55.0637 54.0523 55.0637 53.5V21.5Z"
              fill="#FFBC80"
            />
            <path
              fillRule="evenodd"
              clipRule="evenodd"
              d="M57.0637 22.5V52.5H63.0637V22.5H57.0637ZM56.0637 20.5C55.5114 20.5 55.0637 20.9477 55.0637 21.5V53.5C55.0637 54.0523 55.5114 54.5 56.0637 54.5H64.0637C64.616 54.5 65.0637 54.0523 65.0637 53.5V21.5C65.0637 20.9477 64.616 20.5 64.0637 20.5H56.0637Z"
              fill="black"
            />
            <path
              d="M75.0637 10.5C75.0637 9.94772 75.5114 9.5 76.0637 9.5H84.0637C84.616 9.5 85.0637 9.94772 85.0637 10.5V53.5C85.0637 54.0523 84.616 54.5 84.0637 54.5H76.0637C75.5114 54.5 75.0637 54.0523 75.0637 53.5V10.5Z"
              fill="#FFD7B3"
            />
            <path
              fillRule="evenodd"
              clipRule="evenodd"
              d="M77.0637 11.5V52.5H83.0637V11.5H77.0637ZM76.0637 9.5C75.5114 9.5 75.0637 9.94772 75.0637 10.5V53.5C75.0637 54.0523 75.5114 54.5 76.0637 54.5H84.0637C84.616 54.5 85.0637 54.0523 85.0637 53.5V10.5C85.0637 9.94772 84.616 9.5 84.0637 9.5H76.0637Z"
              fill="black"
            />
          </svg>