<?xml version="1.0" standalone="no"?>
<!DOCTYPE svg PUBLIC "-//W3C//DTD SVG 20010904//EN"
 "http://www.w3.org/TR/2001/REC-SVG-20010904/DTD/svg10.dtd">
<svg version="1.0" xmlns="http://www.w3.org/2000/svg"
 width="160.000000pt" height="64.000000pt" viewBox="0 0 160.000000 64.000000"
 preserveAspectRatio="xMidYMid meet">

<g transform="translate(0.000000,64.000000) scale(0.100000,-0.100000)"
fill="#ffd600" stroke="none">
<path d="M303 415 c-39 -17 -56 -47 -56 -99 0 -54 45 -96 104 -96 113 0 139
160 32 201 -31 12 -41 11 -80 -6z m77 -20 c18 -22 24 -91 10 -125 -10 -23 -19
-30 -41 -30 -35 0 -49 23 -49 82 0 70 47 113 80 73z"/>
<path d="M480 401 c13 -25 13 -148 0 -156 -26 -16 -3 -25 65 -25 79 0 95 9 81
47 -6 14 -8 14 -22 -5 -9 -13 -26 -22 -40 -22 l-25 0 3 90 3 90 -38 0 c-34 0
-37 -2 -27 -19z"/>
<path d="M645 320 l0 -100 73 0 c76 0 92 10 78 47 -6 14 -8 14 -22 -5 -10 -14
-26 -22 -45 -22 -27 0 -29 2 -29 40 0 29 4 40 15 40 8 0 15 -4 15 -10 0 -5 5
-10 10 -10 6 0 10 11 10 25 0 22 -3 25 -25 19 -23 -6 -25 -3 -25 25 0 28 3 31
29 31 17 0 31 -6 35 -16 8 -20 26 -9 26 17 0 17 -7 19 -72 19 l-73 0 0 -100z"/>
<path d="M818 408 c15 -15 16 -142 2 -169 -10 -17 -7 -19 28 -19 l40 0 -5 48
-4 47 27 -47 c23 -40 32 -48 56 -48 15 0 28 2 28 5 0 2 -13 24 -29 47 -29 42
-29 43 -10 61 21 20 25 57 7 75 -7 7 -41 12 -82 12 -54 0 -67 -3 -58 -12z m99
-24 c7 -18 -7 -46 -25 -52 -8 -2 -12 9 -12 32 0 38 25 51 37 20z"/>
<path d="M1005 320 l0 -100 78 0 c75 0 77 0 77 25 0 27 -17 34 -26 10 -4 -9
-19 -15 -40 -15 -32 0 -34 2 -34 34 0 39 14 53 35 36 13 -10 15 -8 15 12 0 21
-4 25 -25 20 -22 -4 -25 -1 -25 27 0 28 3 31 29 31 16 0 31 -6 35 -15 9 -24
26 -17 26 10 0 24 -2 25 -72 25 l-73 0 0 -100z"/>
<path d="M1186 398 c11 -13 28 -36 38 -51 17 -28 17 -30 -8 -68 -15 -21 -31
-39 -36 -39 -6 0 -10 -4 -10 -10 0 -5 14 -10 31 -10 24 0 29 3 25 18 -3 9 2
26 10 37 15 20 15 20 30 1 8 -11 12 -28 8 -38 -4 -15 1 -18 35 -18 23 0 41 2
41 5 0 2 -16 29 -35 59 l-34 54 22 29 c12 15 28 33 37 40 13 10 10 12 -19 13
-23 0 -32 -4 -28 -13 3 -7 -1 -21 -8 -30 -11 -15 -14 -15 -25 -2 -7 8 -10 22
-6 30 4 12 -4 15 -41 15 l-46 0 19 -22z"/>
</g>
</svg>
