<?xml version="1.0" standalone="no"?>
<!DOCTYPE svg PUBLIC "-//W3C//DTD SVG 20010904//EN"
 "http://www.w3.org/TR/2001/REC-SVG-20010904/DTD/svg10.dtd">
<svg version="1.0" xmlns="http://www.w3.org/2000/svg"
 width="225.000000pt" height="225.000000pt" viewBox="0 0 225.000000 225.000000"
 preserveAspectRatio="xMidYMid meet">

<g transform="translate(0.000000,225.000000) scale(0.100000,-0.100000)"
fill="#ffd600" stroke="none">
<path d="M202 1293 c-43 -21 -77 -66 -92 -121 -35 -132 73 -257 206 -238 60 8
98 29 131 72 22 30 28 49 31 105 5 84 -21 138 -84 175 -50 29 -141 33 -192 7z
m127 -18 c39 -20 56 -67 56 -155 0 -85 -16 -127 -57 -149 -34 -19 -73 -7 -102
32 -18 24 -21 43 -21 121 0 99 14 138 58 156 31 12 34 12 66 -5z"/>
<path d="M520 1299 c0 -6 7 -17 15 -25 22 -22 22 -286 0 -304 -8 -7 -15 -16
-15 -21 0 -5 63 -9 140 -9 l140 0 0 50 c0 28 -4 50 -9 50 -5 0 -18 -16 -30
-35 -19 -33 -23 -35 -76 -35 l-55 0 0 144 c0 115 3 146 15 156 34 28 17 40
-55 40 -43 0 -70 -4 -70 -11z"/>
<path d="M830 1296 c0 -8 5 -18 10 -21 6 -4 10 -67 10 -155 0 -88 -4 -151 -10
-155 -31 -19 3 -25 136 -25 l145 0 -3 47 c-3 54 -23 67 -39 27 -14 -38 -25
-44 -86 -44 l-53 0 0 70 0 70 29 0 c16 0 31 -6 35 -15 12 -32 26 -13 26 35 0
48 -14 67 -26 35 -4 -9 -19 -15 -35 -15 l-29 0 0 65 0 65 41 0 c33 0 46 -6 67
-30 38 -43 52 -39 52 15 l0 45 -135 0 c-111 0 -135 -3 -135 -14z"/>
<path d="M1150 1299 c0 -6 7 -17 15 -25 21 -22 22 -271 0 -300 -8 -10 -15 -22
-15 -26 0 -5 32 -8 70 -8 70 0 83 7 55 30 -17 14 -22 140 -6 140 5 0 30 -38
56 -85 l46 -85 55 0 c55 0 69 11 36 29 -10 5 -31 34 -46 63 -16 29 -38 63 -49
76 -20 22 -20 22 -1 22 86 0 96 140 13 169 -42 14 -229 15 -229 0z m184 -51
c33 -46 4 -108 -49 -108 -24 0 -25 2 -25 65 l0 65 29 0 c20 0 35 -8 45 -22z"/>
<path d="M1500 1296 c0 -8 5 -18 10 -21 6 -4 10 -67 10 -156 0 -93 -4 -149
-10 -149 -5 0 -10 -7 -10 -15 0 -13 22 -15 140 -15 l140 0 0 50 c0 55 -15 66
-31 23 -14 -37 -25 -43 -86 -43 l-53 0 0 70 0 70 29 0 c16 0 31 -6 35 -15 12
-32 26 -13 26 35 0 48 -14 67 -26 35 -4 -9 -19 -15 -35 -15 l-29 0 0 65 0 65
40 0 c39 0 80 -26 80 -50 0 -5 7 -10 15 -10 11 0 15 12 15 45 l0 45 -130 0
c-107 0 -130 -3 -130 -14z"/>
<path d="M1810 1300 c0 -6 7 -13 15 -16 15 -6 108 -151 108 -169 0 -18 -75
-124 -99 -140 -38 -24 -28 -35 31 -35 59 0 61 1 43 29 -10 16 -7 27 19 66 l30
47 31 -50 c26 -43 29 -52 16 -62 -27 -24 -13 -30 66 -30 48 0 80 4 80 10 0 6
-7 13 -15 16 -8 4 -39 47 -69 96 l-54 90 39 55 c21 31 48 62 59 70 33 23 23
33 -35 33 -56 0 -67 -8 -40 -30 13 -11 13 -16 -3 -42 -30 -52 -38 -53 -67 -7
-24 37 -25 43 -11 51 34 19 13 28 -64 28 -48 0 -80 -4 -80 -10z"/>
</g>
</svg>
